# xmcd CD database file
#
# Track frame offsets:
#	150
#	4527
#	24802
#	44702
#	55426
#	69782
#	86385
#	103513
#	126131
#	139816
#	153663
#	166513
#	181866
#	203851
#	217958
#	239343
#	254663
#	264768
#
# Disc length: 3668 seconds
#
# Revision: 0
# Processed by: cddbd v1.4PL0 Copyright (c) Steve Scherf et al.
# Submitted via: CDex 1.50beta8
#
DISCID=e80e5212
DTITLE=Jonh Denver - Jonh Denver Live
DYEAR=1900
DGENRE=Country
TTITLE0=Music is You
TTITLE1=This Old Guitar
TTITLE2=Rocky Mountain High
TTITLE3=Toledo
TTITLE4=Rocky Mountain Suite
TTITLE5=Farewell Andromeda
TTITLE6=Matthew
TTITLE7=Sweet Surrender
TTITLE8=Grandma's Feather Bed
TTITLE9=Annie's Song
TTITLE10=Forest Lawn
TTITLE11=Thank God I'm a Country Boy
TTITLE12=My Sweet Lady
TTITLE13=Take me Home Country Roads
TTITLE14=Poems, Prayers and Promises
TTITLE15=Rhymes and Reasons
TTITLE16=Blue Grass
TTITLE17=The Eagle And the Hawk
EXTD=
EXTT0=
EXTT1=
EXTT2=
EXTT3=
EXTT4=
EXTT5=
EXTT6=
EXTT7=
EXTT8=
EXTT9=
EXTT10=
EXTT11=
EXTT12=
EXTT13=
EXTT14=
EXTT15=
EXTT16=
EXTT17=
PLAYORDER=
